<mxfile host="app.diagrams.net" modified="2023-02-26T13:05:06.510Z" agent="5.0 (Windows NT 10.0; Win64; x64) AppleWebKit/537.36 (KHTML, like Gecko) Chrome/110.0.0.0 Safari/537.36 Edg/110.0.1587.56" etag="o58oEOh-WAKX-2BNVcY1" version="20.8.23" type="github">
  <diagram name="第 1 页" id="OmNNY8xKjbsHKnF1C2BH">
    <mxGraphModel dx="1434" dy="796" grid="1" gridSize="10" guides="1" tooltips="1" connect="1" arrows="1" fold="1" page="1" pageScale="1" pageWidth="827" pageHeight="1169" math="0" shadow="0">
      <root>
        <mxCell id="0" />
        <mxCell id="1" parent="0" />
        <mxCell id="pOvT5_QrIuhpOHqnwzBa-1" value="" style="whiteSpace=wrap;html=1;align=center;" vertex="1" parent="1">
          <mxGeometry x="140" y="310" width="100" height="40" as="geometry" />
        </mxCell>
        <mxCell id="pOvT5_QrIuhpOHqnwzBa-2" value="数据层" style="text;html=1;strokeColor=none;fillColor=none;align=center;verticalAlign=middle;whiteSpace=wrap;rounded=0;" vertex="1" parent="1">
          <mxGeometry x="160" y="315" width="60" height="30" as="geometry" />
        </mxCell>
        <mxCell id="pOvT5_QrIuhpOHqnwzBa-4" style="edgeStyle=orthogonalEdgeStyle;rounded=0;orthogonalLoop=1;jettySize=auto;html=1;exitX=0.5;exitY=1;exitDx=0;exitDy=0;entryX=0.5;entryY=0;entryDx=0;entryDy=0;" edge="1" parent="1" source="pOvT5_QrIuhpOHqnwzBa-6" target="pOvT5_QrIuhpOHqnwzBa-1">
          <mxGeometry relative="1" as="geometry" />
        </mxCell>
        <mxCell id="pOvT5_QrIuhpOHqnwzBa-5" style="edgeStyle=orthogonalEdgeStyle;rounded=0;orthogonalLoop=1;jettySize=auto;html=1;exitX=0.75;exitY=0;exitDx=0;exitDy=0;entryX=0.75;entryY=1;entryDx=0;entryDy=0;" edge="1" parent="1" source="pOvT5_QrIuhpOHqnwzBa-6" target="pOvT5_QrIuhpOHqnwzBa-10">
          <mxGeometry relative="1" as="geometry" />
        </mxCell>
        <mxCell id="pOvT5_QrIuhpOHqnwzBa-6" value="" style="whiteSpace=wrap;html=1;align=center;" vertex="1" parent="1">
          <mxGeometry x="140" y="240" width="100" height="40" as="geometry" />
        </mxCell>
        <mxCell id="pOvT5_QrIuhpOHqnwzBa-7" value="表示层" style="text;html=1;strokeColor=none;fillColor=none;align=center;verticalAlign=middle;whiteSpace=wrap;rounded=0;" vertex="1" parent="1">
          <mxGeometry x="160" y="245" width="60" height="30" as="geometry" />
        </mxCell>
        <mxCell id="pOvT5_QrIuhpOHqnwzBa-9" style="edgeStyle=orthogonalEdgeStyle;rounded=0;orthogonalLoop=1;jettySize=auto;html=1;exitX=0.25;exitY=1;exitDx=0;exitDy=0;entryX=0.25;entryY=0;entryDx=0;entryDy=0;" edge="1" parent="1" source="pOvT5_QrIuhpOHqnwzBa-10" target="pOvT5_QrIuhpOHqnwzBa-6">
          <mxGeometry relative="1" as="geometry" />
        </mxCell>
        <mxCell id="pOvT5_QrIuhpOHqnwzBa-10" value="" style="whiteSpace=wrap;html=1;align=center;" vertex="1" parent="1">
          <mxGeometry x="140" y="170" width="100" height="40" as="geometry" />
        </mxCell>
        <mxCell id="pOvT5_QrIuhpOHqnwzBa-11" value="视图层" style="text;html=1;strokeColor=none;fillColor=none;align=center;verticalAlign=middle;whiteSpace=wrap;rounded=0;" vertex="1" parent="1">
          <mxGeometry x="160" y="175" width="60" height="30" as="geometry" />
        </mxCell>
      </root>
    </mxGraphModel>
  </diagram>
</mxfile>
